<svg id="Layer_1" data-name="Layer 1" xmlns="http://www.w3.org/2000/svg" viewBox="0 0 122.88 109.63"><defs><style>.cls-1{fill-rule:evenodd;}</style></defs><title>car-paint</title><path class="cls-1" d="M29.53,25.5c-5.64.74-8.63,6-10.49,11.79L14,53.12l-2.47-4.63c-11-.65-12.29,5.57-1.31,11.15h0C-2.06,67.56-.37,81.42.83,96.79a5.46,5.46,0,0,0,0,.58v8.55a3.72,3.72,0,0,0,3.71,3.71H20.33A3.72,3.72,0,0,0,24,105.92v-3H98.86v3a3.72,3.72,0,0,0,3.71,3.71H118.4a3.72,3.72,0,0,0,3.71-3.71V99.34c1.23-20,2-28.13-5.92-36.24l-2-3c12-5.69,11-12.28-.35-11.62l-2.2,4.14-3.82-15.35C106.29,31,102.53,25.41,96,25.41h-.22a10.62,10.62,0,0,1-2.28,6.24c4.79.18,7.7,4.3,8.72,9l3.83,15.92H19.23v0L24,40.69a21.94,21.94,0,0,1,2-4.67,7,7,0,0,1,1.79-2.27,7.29,7.29,0,0,1,4-2,10.63,10.63,0,0,1-2.34-6.23ZM57.51,0H68.67a1.73,1.73,0,0,1,1.72,1.72v17.9a1.49,1.49,0,0,1-.06.43H85.17a2.07,2.07,0,0,1,2.07,2.07v2.94a2.08,2.08,0,0,1-2.07,2.08h-45a2.08,2.08,0,0,1-2.08-2.08V22.12a2.08,2.08,0,0,1,2.08-2.07h15.7a1.58,1.58,0,0,1-.05-.43V1.72A1.72,1.72,0,0,1,57.51,0ZM42.73,29.85H83.19L86.48,51H77.25L73,39.78V51H63.42L59.18,39.78V51H50.44V39.78L46.2,51H39.48l3.25-21.14ZM60.1,3.29h6a1.21,1.21,0,0,1,1.2,1.22V6.24a1.21,1.21,0,0,1-1.2,1.2h-6a1.22,1.22,0,0,1-1.2-1.2V4.49a1.18,1.18,0,0,1,1.2-1.2ZM30.38,77.87,16.32,76.1c-3.32-.37-4.21,1-3.08,3.89l1.52,3.69a5.33,5.33,0,0,0,1.9,2.12,6.43,6.43,0,0,0,3.15.87l12.54.1c3,0,4.34-1.22,3.39-4a6.78,6.78,0,0,0-5.36-4.9Zm62.12,0,14.06-1.77c3.32-.37,4.21,1,3.08,3.89l-1.52,3.69a5.33,5.33,0,0,1-1.9,2.12,6.43,6.43,0,0,1-3.15.87l-12.54.1c-3,0-4.34-1.22-3.39-4a6.78,6.78,0,0,1,5.36-4.9Z"/></svg>